/* XPM */
static const char* const bookmark_small_xpm[] = {
"10 10 17 1 0 0",
"  c #3C68A1",
"! c #4972A8",
"# c #4472AA",
"$ c #4272AA",
"% c #4A73A9",
"& c #6488B7",
"' c #5987BA",
"( c #5687BB",
") c #5A87BA",
"* c #527FB4",
"+ c #4C7DB3",
", c #587EB0",
"- c #3B67A1",
". c #2F5D9A",
"/ c #3C67A1",
"0 c #3D68A1",
"1 c None",
"1111111111",
"1 !#$$#! 1",
"1%&'(()&!1",
"1%&'(()&!1",
"1%&'(()&!1",
"1%&'(()&!1",
"1%&*++*&!1",
"1%,-../,!1",
"1  11110 1",
"1111111111"
};
